<svg width="39" height="45" viewBox="0 0 39 45" fill="none" xmlns="http://www.w3.org/2000/svg">
<path fill-rule="evenodd" clip-rule="evenodd" d="M27.7222 39.8432L37.3877 34.2628C38.7225 33.4922 38.8652 32.8321 38.8652 31.4546V12.9877C38.8652 11.61 38.7225 10.9501 37.3877 10.1793L21.7312 1.13985C20.6588 0.520644 19.4856 1.21155 19.4856 2.39048V11.0043L12.0659 6.72043C10.9935 6.10131 9.82029 6.79188 9.82029 7.97057V16.646L2.3473 12.3315C1.27485 11.7124 0.101624 12.4029 0.101624 13.5816V31.4546C0.101624 32.8321 0.244285 33.4922 1.57916 34.2628L2.8126 34.975V34.9731L9.82029 39.0189L17.4006 43.3954L17.8467 43.6527C18.3004 43.8746 18.8056 44.0068 19.3396 44.0265C19.3866 44.0283 19.4337 44.0292 19.4813 44.0292C20.0907 44.0292 20.666 43.8829 21.1741 43.6237L21.5075 43.4312C21.5357 43.413 21.5637 43.3944 21.5911 43.3753C21.6351 43.3548 21.6786 43.3321 21.7224 43.3072L21.7312 43.3022L27.7222 39.8432Z" fill="url(#paint0_linear_529_3255)"/>
<path fill-rule="evenodd" clip-rule="evenodd" d="M21.5645 43.3237C21.6085 43.3032 21.652 43.2805 21.6957 43.2556L21.7045 43.2506L27.6955 39.7916C29.0305 39.021 29.173 38.3609 29.173 36.9833V18.5164C29.173 17.1389 29.0305 16.4788 27.6955 15.708L19.4589 10.9527L12.0392 6.66885C10.9669 6.04973 9.79364 6.7403 9.79364 7.91899V16.5945L17.9772 21.3192C19.312 22.0897 19.4546 22.7498 19.4546 24.1274V36.5188V42.5943C19.4546 43.1548 19.431 43.5964 19.3129 43.975C19.3599 43.9767 19.407 43.9777 19.4546 43.9777C20.064 43.9777 20.6393 43.8313 21.1474 43.5721L21.4808 43.3796C21.5091 43.3615 21.537 43.3428 21.5645 43.3237Z" stroke="#FEFEFE" stroke-width="0.6" stroke-miterlimit="10"/>
<defs>
<linearGradient id="paint0_linear_529_3255" x1="2.87296" y1="27.0566" x2="37.4098" y2="25.6706" gradientUnits="userSpaceOnUse">
<stop stop-color="#3A2C6B"/>
<stop offset="1" stop-color="#9982BA"/>
</linearGradient>
</defs>
</svg>
