<svg width="16" height="16" viewBox="0 0 16 16" fill="none" xmlns="http://www.w3.org/2000/svg">
<path d="M2.66659 2.66666L13.3333 13.3333M10.9999 11.1706C10.0982 11.6563 9.079 11.9999 7.99993 11.9999C5.64616 11.9999 3.57749 10.3652 2.3912 9.18586C2.07807 8.87459 1.92153 8.71892 1.82187 8.41339C1.75079 8.19552 1.75077 7.80439 1.82187 7.58646C1.92155 7.28099 2.07842 7.12499 2.39218 6.81312C2.9901 6.2188 3.81201 5.50905 4.78146 4.95116M12.9999 9.75566C13.2219 9.56032 13.4253 9.36819 13.6078 9.18686L13.6097 9.18479C13.9221 8.87426 14.0788 8.71859 14.1783 8.41372C14.2493 8.19586 14.2492 7.80452 14.1781 7.58666C14.0785 7.28126 13.9218 7.12512 13.6089 6.81406C12.4225 5.63471 10.3537 3.99999 7.99993 3.99999C7.77493 3.99999 7.55253 4.01493 7.33327 4.04298M8.88187 8.99999C8.6468 9.20746 8.33807 9.33332 7.99993 9.33332C7.26353 9.33332 6.66659 8.73639 6.66659 7.99999C6.66659 7.64032 6.809 7.31406 7.04053 7.07419" stroke="#5A5A5A" stroke-width="1.5" stroke-linecap="round" stroke-linejoin="round"/>
</svg>
