<svg width="29" height="29" viewBox="0 0 29 29" fill="none" xmlns="http://www.w3.org/2000/svg">
<g clip-path="url(#clip0_529_3247)">
<path d="M28.1308 15.0561C28.1308 14.1045 28.0536 13.1476 27.889 12.2114H14.6838V17.6025H22.2458C21.932 19.3413 20.9237 20.8794 19.4473 21.8568V25.3549H23.9588C26.6081 22.9165 28.1308 19.3156 28.1308 15.0561Z" fill="#4285F4"/>
<path d="M14.6838 28.7346C18.4596 28.7346 21.6439 27.4948 23.964 25.3548L19.4525 21.8568C18.1973 22.7107 16.5769 23.1943 14.6889 23.1943C11.0365 23.1943 7.93971 20.7302 6.82856 17.4173H2.17303V21.0234C4.54967 25.751 9.39038 28.7346 14.6838 28.7346Z" fill="#34A853"/>
<path d="M6.82341 17.4173C6.23696 15.6785 6.23696 13.7958 6.82341 12.057V8.45091H2.17303C0.187359 12.4068 0.187359 17.0675 2.17303 21.0234L6.82341 17.4173Z" fill="#FBBC04"/>
<path d="M14.6838 6.27491C16.6797 6.24405 18.6088 6.9951 20.0543 8.37375L24.0514 4.3767C21.5205 2.00006 18.1613 0.693432 14.6838 0.734586C9.39038 0.734586 4.54966 3.71823 2.17303 8.45092L6.82341 12.057C7.92942 8.73899 11.0314 6.27491 14.6838 6.27491Z" fill="#EA4335"/>
</g>
<defs>
<clipPath id="clip0_529_3247">
<rect width="28" height="28" fill="white" transform="translate(0.403809 0.733643)"/>
</clipPath>
</defs>
</svg>
